PathFileType	4	(X/Y/Z)	/tmp/tmpjnq7zxqp/Me/MarkerData/slow walking_segment_0.trc
DataRate	CameraRate	NumFrames	NumMarkers	Units	OrigDataRate	OrigDataStartFrame	OrigNumFrames
100.092	100.092	10	38	m	100.092	678	1086
Frame#	Time	C7			CLAV			LANK			LASI			LBHD			LELB			LFHD			LFIN			LFRM			LHEE			LKNE			LPSI			LSHO			LTHI			LTIB			LTOE			LUPA			LWRA			LWRB			RANK			RBAK			RBHD			RELB			RFHD			RFIN			RFRM			RHEE			RKNE			RPSI			RSHO			RTHI			RTIB			RTOE			RUPA			RWRA			RWRB			STRN			T10		
		X1	Y1	Z1	X2	Y2	Z2	X3	Y3	Z3	X4	Y4	Z4	X5	Y5	Z5	X6	Y6	Z6	X7	Y7	Z7	X8	Y8	Z8	X9	Y9	Z9	X10	Y10	Z10	X11	Y11	Z11	X12	Y12	Z12	X13	Y13	Z13	X14	Y14	Z14	X15	Y15	Z15	X16	Y16	Z16	X17	Y17	Z17	X18	Y18	Z18	X19	Y19	Z19	X20	Y20	Z20	X21	Y21	Z21	X22	Y22	Z22	X23	Y23	Z23	X24	Y24	Z24	X25	Y25	Z25	X26	Y26	Z26	X27	Y27	Z27	X28	Y28	Z28	X29	Y29	Z29	X30	Y30	Z30	X31	Y31	Z31	X32	Y32	Z32	X33	Y33	Z33	X34	Y34	Z34	X35	Y35	Z35	X36	Y36	Z36	X37	Y37	Z37	X38	Y38	Z38

679	6.77376	-0.00375554	1.44877	-0.0139427	-0.174009	1.38095	-0.0111218	0.212344	0.223273	0.144065	-0.10409	0.978487	0.159463	-0.0882619	1.59972	0.0635906	-0.121272	1.09337	0.265275	-0.198327	1.66605	0.0308927	-0.212764	0.772068	0.269605	-0.12459	0.935369	0.262789	0.269649	0.27333	0.0866086	-0.115858	0.45704	0.190078	0.0205655	0.987177	0.0183976	-0.0822241	1.44201	0.161057	-0.122166	0.649273	0.19582	0.0986248	0.323378	0.177045	0.149618	0.0740757	0.0799632	-0.118311	1.27887	0.252645	-0.200025	0.859782	0.214041	-0.150927	0.849228	0.267677	-0.201795	0.0945668	-0.095575	0.0392226	1.31035	-0.129112	-0.0684099	1.58839	-0.0844217	-0.0795682	1.08487	-0.270955	-0.178046	1.64626	-0.0952032	-0.144132	0.742643	-0.288296	-0.0806262	0.996136	-0.278579	-0.12634	0.0588078	-0.0354485	-0.228901	0.497021	-0.120189	0.015531	0.984502	-0.0448699	-0.0856257	1.42977	-0.185618	-0.194848	0.82222	-0.174261	-0.199138	0.368094	-0.146536	-0.363953	0.0619906	-0.0369414	-0.0968149	1.18199	-0.260019	-0.142742	0.840033	-0.228866	-0.0959064	0.828034	-0.283497	-0.222631	1.22588	0.000405721	0.0307195	1.21831	-0.00561262
680	6.78375	-0.00387726	1.44989	-0.0161313	-0.173942	1.38175	-0.0117821	0.205009	0.23029	0.14288	-0.103055	0.979258	0.158436	-0.0880443	1.60067	0.0620923	-0.115507	1.09365	0.263371	-0.198295	1.66695	0.0299944	-0.199625	0.770262	0.268857	-0.115519	0.93576	0.2612	0.257732	0.282808	0.0849505	-0.12694	0.458568	0.190217	0.0212923	0.987255	0.0171666	-0.0809489	1.44279	0.159697	-0.1284	0.650792	0.19549	0.0894989	0.32826	0.176308	0.146429	0.0750007	0.08128	-0.115023	1.27906	0.251311	-0.189567	0.858264	0.213117	-0.139837	0.849076	0.266564	-0.193791	0.0944391	-0.0959298	0.0380207	1.31142	-0.131969	-0.0688903	1.58926	-0.0859961	-0.0861865	1.08584	-0.273048	-0.178665	1.64709	-0.0962415	-0.156496	0.744652	-0.28923	-0.0887081	0.997085	-0.280676	-0.118192	0.058793	-0.035897	-0.224047	0.496857	-0.121293	0.0160258	0.985271	-0.0461867	-0.0874913	1.43081	-0.187128	-0.193994	0.822826	-0.174955	-0.193647	0.368071	-0.147481	-0.355934	0.0620124	-0.0372136	-0.102119	1.18314	-0.261373	-0.152313	0.841958	-0.229819	-0.106721	0.829295	-0.285267	-0.222518	1.2265	-0.0004032	0.0308943	1.21932	-0.008339
681	6.79374	-0.00390895	1.45103	-0.0182408	-0.173711	1.38255	-0.0123175	0.197429	0.236801	0.141781	-0.102003	0.980125	0.1574	-0.0877712	1.60162	0.0607806	-0.109771	1.09385	0.261521	-0.198251	1.66782	0.0291897	-0.186665	0.768648	0.267976	-0.106513	0.93617	0.25962	0.248051	0.289588	0.0817494	-0.137747	0.460573	0.19028	0.0220497	0.987568	0.0159718	-0.0794483	1.44343	0.158414	-0.13431	0.652673	0.195188	0.0800694	0.332759	0.175495	0.142076	0.0784411	0.0832101	-0.11149	1.27929	0.250153	-0.179132	0.856895	0.212092	-0.128886	0.848999	0.265364	-0.185805	0.0943725	-0.0963117	0.0368758	1.31255	-0.134847	-0.0693165	1.59012	-0.0875078	-0.0928265	1.08687	-0.27511	-0.179313	1.64791	-0.0971992	-0.168942	0.746889	-0.290013	-0.0969744	0.998136	-0.282581	-0.110102	0.0587877	-0.0361786	-0.218958	0.496624	-0.122385	0.016373	0.986134	-0.0474033	-0.0892307	1.43176	-0.188593	-0.193226	0.823406	-0.175566	-0.187861	0.36804	-0.148347	-0.347787	0.0621343	-0.0373687	-0.107358	1.18435	-0.262807	-0.161947	0.844004	-0.230645	-0.117726	0.830652	-0.286934	-0.222274	1.22715	-0.00106872	0.0321496	1.22057	-0.0108721
682	6.80373	-0.0038527	1.45217	-0.020254	-0.17338	1.38335	-0.0127357	0.189984	0.243044	0.140296	-0.101035	0.981165	0.156324	-0.0874916	1.60255	0.0595437	-0.104021	1.094	0.259743	-0.198168	1.66861	0.0284527	-0.173868	0.767286	0.266979	-0.0975683	0.936614	0.258048	0.239763	0.294505	0.0777298	-0.14819	0.462988	0.190192	0.0228696	0.988116	0.01478	-0.0777919	1.444	0.157188	-0.140069	0.654782	0.194843	0.0707092	0.336851	0.174926	0.134565	0.0835443	0.0860562	-0.107715	1.27953	0.249105	-0.168709	0.855695	0.210977	-0.118043	0.849027	0.264063	-0.177796	0.0943984	-0.0966383	0.0357243	1.31371	-0.137716	-0.0698602	1.59105	-0.0888384	-0.0994883	1.08798	-0.277125	-0.179983	1.64869	-0.0981012	-0.181467	0.74938	-0.290591	-0.105326	0.999265	-0.284393	-0.102081	0.058788	-0.0363205	-0.213648	0.496342	-0.123461	0.0165855	0.987002	-0.0485588	-0.0909338	1.43266	-0.189895	-0.192355	0.823909	-0.176169	-0.181656	0.368006	-0.149124	-0.33968	0.0623694	-0.0374101	-0.112542	1.18563	-0.264232	-0.171639	0.846196	-0.231363	-0.128893	0.83217	-0.288508	-0.221925	1.22782	-0.00156451	0.0330598	1.22176	-0.0131823
683	6.81372	-0.00372824	1.45326	-0.0222128	-0.172959	1.38412	-0.0130675	0.182306	0.248591	0.138494	-0.100171	0.982416	0.155214	-0.0872687	1.60346	0.0582957	-0.0982093	1.09416	0.258022	-0.198102	1.66933	0.027821	-0.161277	0.766214	0.265868	-0.0886999	0.937115	0.256437	0.231584	0.297958	0.073577	-0.158091	0.465651	0.189992	0.0237518	0.988917	0.0135966	-0.0760393	1.44454	0.156038	-0.145731	0.657047	0.194414	0.061883	0.340846	0.1742	0.124711	0.088153	0.08955	-0.103727	1.27972	0.248083	-0.158347	0.854664	0.209736	-0.107342	0.84915	0.262652	-0.16972	0.0944157	-0.0969394	0.0346169	1.31492	-0.140542	-0.0702702	1.59194	-0.0900838	-0.106192	1.08918	-0.279029	-0.180518	1.64942	-0.0988161	-0.194255	0.752146	-0.291038	-0.113718	1.0005	-0.286183	-0.0940409	0.058914	-0.0362969	-0.208109	0.496035	-0.12448	0.0171229	0.987928	-0.0496514	-0.0925677	1.43357	-0.191069	-0.191029	0.824318	-0.176843	-0.175073	0.367996	-0.149929	-0.331618	0.0625158	-0.0375131	-0.117671	1.18698	-0.26553	-0.181372	0.848557	-0.231958	-0.140144	0.83387	-0.289958	-0.221307	1.22854	-0.00189396	0.0335847	1.22291	-0.0153196
684	6.82371	-0.00351794	1.4543	-0.0240687	-0.172478	1.38486	-0.013294	0.173952	0.252863	0.136644	-0.0993868	0.98386	0.153983	-0.0871155	1.60435	0.05696	-0.0922089	1.09447	0.256421	-0.198021	1.67	0.0273016	-0.148899	0.765388	0.264616	-0.0798588	0.937697	0.254779	0.223072	0.299805	0.0695487	-0.167363	0.46848	0.189771	0.0247564	0.989935	0.0124946	-0.0741916	1.44507	0.154955	-0.151236	0.659389	0.193927	0.0533599	0.344888	0.172783	0.113275	0.0920596	0.0930223	-0.0995374	1.27993	0.24711	-0.14811	0.853846	0.208358	-0.0968044	0.849358	0.261123	-0.16167	0.0943651	-0.0971516	0.0335495	1.31611	-0.143278	-0.0705302	1.59277	-0.0913007	-0.113045	1.09044	-0.280716	-0.180986	1.65011	-0.0993919	-0.207264	0.755203	-0.291366	-0.122056	1.00187	-0.287948	-0.0859728	0.0591049	-0.0362048	-0.202279	0.495685	-0.125442	0.0179312	0.988882	-0.0506995	-0.094059	1.43448	-0.192117	-0.189435	0.82454	-0.17763	-0.167898	0.367991	-0.150612	-0.323586	0.062581	-0.0376265	-0.122771	1.18839	-0.266684	-0.1911	0.851107	-0.232412	-0.151445	0.835765	-0.291299	-0.220408	1.22929	-0.00201236	0.0340037	1.22405	-0.0173843
685	6.8337	-0.00322534	1.45532	-0.0258326	-0.171986	1.38559	-0.0134768	0.164862	0.255755	0.134893	-0.0987875	0.985415	0.152705	-0.0867097	1.60516	0.0560285	-0.0860978	1.09481	0.254858	-0.197927	1.67063	0.0268911	-0.136852	0.764768	0.263229	-0.0710675	0.938342	0.253055	0.214033	0.300126	0.0657837	-0.176111	0.47149	0.189535	0.0258255	0.991074	0.0115012	-0.0722167	1.44561	0.153906	-0.156472	0.661855	0.193409	0.0447967	0.348482	0.170968	0.100925	0.0950002	0.0961658	-0.0951758	1.28022	0.246245	-0.137961	0.853229	0.206929	-0.08641	0.849755	0.259603	-0.153618	0.0944008	-0.0971827	0.0326123	1.31725	-0.145841	-0.0708101	1.59361	-0.0923775	-0.120022	1.09184	-0.282166	-0.181525	1.65078	-0.0999483	-0.22023	0.758524	-0.291573	-0.13037	1.00346	-0.289598	-0.0779505	0.0590549	-0.0364307	-0.196186	0.495324	-0.126332	0.0188107	0.989823	-0.0516762	-0.0953788	1.43541	-0.193038	-0.187569	0.824553	-0.178544	-0.160249	0.368013	-0.151142	-0.315576	0.0626317	-0.0376923	-0.127805	1.18991	-0.267691	-0.200801	0.853869	-0.232759	-0.162599	0.837933	-0.292587	-0.219272	1.23001	-0.00186801	0.0345164	1.22515	-0.019493
686	6.84369	-0.00283135	1.45629	-0.027534	-0.171448	1.38628	-0.0136566	0.155125	0.257355	0.133349	-0.0983879	0.987166	0.151582	-0.0862414	1.60595	0.0552506	-0.0798932	1.09518	0.253293	-0.197806	1.67123	0.0265715	-0.125145	0.764397	0.261698	-0.0623651	0.939055	0.251268	0.204416	0.299131	0.0624004	-0.184453	0.474672	0.189199	0.0266712	0.992249	0.0105932	-0.0701599	1.44615	0.152879	-0.161611	0.664616	0.19301	0.0360715	0.351151	0.169229	0.0879296	0.0968667	0.0989096	-0.090686	1.28062	0.245528	-0.127921	0.852836	0.205431	-0.0761312	0.850335	0.257965	-0.145493	0.0945496	-0.0969858	0.0318158	1.31834	-0.1482	-0.071164	1.5945	-0.0932983	-0.126803	1.09343	-0.283591	-0.181961	1.65143	-0.100329	-0.233145	0.762116	-0.29167	-0.138659	1.00524	-0.291111	-0.0699026	0.0590475	-0.0365483	-0.18998	0.494986	-0.127135	0.0197568	0.990686	-0.0525438	-0.0965884	1.4364	-0.193877	-0.185411	0.824396	-0.179616	-0.152434	0.368088	-0.151571	-0.307521	0.0626348	-0.0377807	-0.132686	1.19153	-0.268582	-0.210461	0.856833	-0.233006	-0.173581	0.840396	-0.293812	-0.217482	1.23062	-0.00147175	0.0353595	1.22617	-0.0216356
687	6.85368	-0.00243144	1.45721	-0.0291829	-0.170837	1.38695	-0.0137999	0.144788	0.25774	0.13199	-0.0978045	0.989031	0.150272	-0.0858812	1.60672	0.0543764	-0.0735247	1.09565	0.251771	-0.197649	1.67181	0.0263605	-0.11375	0.764245	0.260099	-0.0537323	0.939858	0.24941	0.194449	0.296933	0.059377	-0.192455	0.477994	0.188747	0.027603	0.993437	0.00981486	-0.0681089	1.4467	0.15191	-0.166678	0.667546	0.192712	0.0271337	0.352734	0.167814	0.0742613	0.0977191	0.101275	-0.0861522	1.28104	0.244648	-0.117987	0.85265	0.203919	-0.0659487	0.851057	0.256154	-0.137378	0.0946273	-0.0966681	0.0312139	1.3194	-0.150357	-0.0715613	1.5954	-0.0940513	-0.133386	1.0952	-0.284997	-0.182298	1.65209	-0.10055	-0.245982	0.766009	-0.291606	-0.146885	1.00721	-0.292486	-0.0618051	0.0591429	-0.0365444	-0.183778	0.494681	-0.127869	0.0207133	0.991467	-0.0533011	-0.0976121	1.43741	-0.194628	-0.182988	0.824112	-0.180806	-0.144749	0.368232	-0.152024	-0.299411	0.0625263	-0.0380167	-0.137409	1.19328	-0.269377	-0.220022	0.859984	-0.233109	-0.184735	0.843061	-0.294772	-0.215876	1.23117	-0.000937554	0.0363644	1.22709	-0.023801
688	6.86367	-0.00203464	1.4581	-0.0307851	-0.170205	1.38761	-0.0139322	0.134055	0.256746	0.130635	-0.0971466	0.990884	0.148826	-0.0855495	1.60743	0.0535275	-0.0670089	1.09621	0.250252	-0.197447	1.67233	0.0262537	-0.102607	0.764302	0.258488	-0.0451765	0.940758	0.247495	0.184291	0.293503	0.0567894	-0.200098	0.481365	0.188159	0.0285833	0.994538	0.00914074	-0.0660537	1.44726	0.150961	-0.171571	0.670506	0.192457	0.0178812	0.353359	0.166586	0.059872	0.0977231	0.103229	-0.0815729	1.2815	0.243633	-0.108412	0.852649	0.202363	-0.0560414	0.851773	0.254237	-0.129275	0.0946406	-0.0965546	0.030789	1.32042	-0.152311	-0.0718608	1.59624	-0.0947712	-0.139809	1.09711	-0.286279	-0.18269	1.65274	-0.10076	-0.258723	0.770216	-0.291366	-0.154981	1.00936	-0.293717	-0.0535217	0.0593928	-0.0364371	-0.177615	0.494416	-0.128566	0.0217199	0.992191	-0.0539503	-0.0985395	1.43849	-0.195346	-0.180384	0.82371	-0.182021	-0.137224	0.368413	-0.15244	-0.29136	0.0625003	-0.0381617	-0.141966	1.19513	-0.270124	-0.22941	0.863331	-0.233079	-0.195826	0.845928	-0.295491	-0.214568	1.23169	-0.000295347	0.0374375	1.22794	-0.0260209
